HIERARCHY
ROOT Hips
{
    OFFSET   0.000000   0.000000   0.000000
    CHANNELS 6 Xposition Yposition Zposition Zrotation Xrotation Yrotation
    JOINT Chest
    {
        OFFSET   0.000000   8.007240   0.000000
        CHANNELS 3 Zrotation Xrotation Yrotation
        JOINT Chest2
        {
            OFFSET   0.000000  22.077100   0.000000
            CHANNELS 3 Zrotation Xrotation Yrotation
            JOINT Neck
            {
                OFFSET   0.000000  23.254800   0.000000
                CHANNELS 3 Zrotation Xrotation Yrotation
                JOINT Head
                {
                    OFFSET   0.000000  14.370000   1.956600
                    CHANNELS 3 Zrotation Xrotation Yrotation
                    End Site
                    {
                        OFFSET   0.000000  19.566000   0.000000
                    }
                }
            }
            JOINT LeftCollar
            {
                OFFSET   3.911900  19.017000  -0.467064
                CHANNELS 3 Zrotation Xrotation Yrotation
                JOINT LeftShoulder
                {
                    OFFSET  10.383700   0.000000   0.000000
                    CHANNELS 3 Zrotation Xrotation Yrotation
                    JOINT LeftElbow
                    {
                        OFFSET  26.662100   0.001476   0.000517
                        CHANNELS 3 Zrotation Xrotation Yrotation
                        JOINT LeftWrist
                        {
                            OFFSET  28.869000  -0.000025  -0.000106
                            CHANNELS 3 Zrotation Xrotation Yrotation
                            JOINT LeftFinger0
                            {
                                OFFSET   2.044660  -2.323460   3.252850
                                CHANNELS 3 Zrotation Xrotation Yrotation
                                JOINT LeftFinger01
                                {
                                    OFFSET   3.088130   0.000000   0.000000
                                    CHANNELS 3 Zrotation Xrotation Yrotation
                                    JOINT LeftFinger02
                                    {
                                        OFFSET   2.639460   0.000000   0.000000
                                        CHANNELS 3 Zrotation Xrotation Yrotation
                                        End Site
                                        {
                                            OFFSET   2.582190   0.000000   0.000000
                                        }
                                    }
                                }
                            }
                            JOINT LeftFinger1
                            {
                                OFFSET   8.364480   0.000000   3.252850
                                CHANNELS 3 Zrotation Xrotation Yrotation
                                JOINT LeftFinger11
                                {
                                    OFFSET   4.646930   0.000000   0.000000
                                    CHANNELS 3 Zrotation Xrotation Yrotation
                                    JOINT LeftFinger12
                                    {
                                        OFFSET   2.323460   0.000000   0.000000
                                        CHANNELS 3 Zrotation Xrotation Yrotation
                                        End Site
                                        {
                                            OFFSET   2.273050   0.000000   0.000000
                                        }
                                    }
                                }
                            }
                            JOINT LeftFinger2
                            {
                                OFFSET   8.364490   0.000015   1.078090
                                CHANNELS 3 Zrotation Xrotation Yrotation
                                JOINT LeftFinger21
                                {
                                    OFFSET   5.111620   0.000000   0.000000
                                    CHANNELS 3 Zrotation Xrotation Yrotation
                                    JOINT LeftFinger22
                                    {
                                        OFFSET   2.788160   0.000016   0.000000
                                        CHANNELS 3 Zrotation Xrotation Yrotation
                                        End Site
                                        {
                                            OFFSET   2.727660   0.000000   0.000000
                                        }
                                    }
                                }
                            }
                            JOINT LeftFinger3
                            {
                                OFFSET   7.899780   0.000017  -1.078090
                                CHANNELS 3 Zrotation Xrotation Yrotation
                                JOINT LeftFinger31
                                {
                                    OFFSET   4.646930   0.000000   0.000000
                                    CHANNELS 3 Zrotation Xrotation Yrotation
                                    JOINT LeftFinger32
                                    {
                                        OFFSET   2.323470   0.000000   0.000000
                                        CHANNELS 3 Zrotation Xrotation Yrotation
                                        End Site
                                        {
                                            OFFSET   2.273050   0.000000   0.000000
                                        }
                                    }
                                }
                            }
                            JOINT LeftFinger4
                            {
                                OFFSET   7.435090   0.000000  -3.252850
                                CHANNELS 3 Zrotation Xrotation Yrotation
                                JOINT LeftFinger41
                                {
                                    OFFSET   3.717550   0.000000   0.000000
                                    CHANNELS 3 Zrotation Xrotation Yrotation
                                    JOINT LeftFinger42
                                    {
                                        OFFSET   1.858770   0.000000   0.000000
                                        CHANNELS 3 Zrotation Xrotation Yrotation
                                        End Site
                                        {
                                            OFFSET   1.818440   0.000000   0.000000
                                        }
                                    }
                                }
                            }
                        }
                    }
                }
            }
            JOINT RightCollar
            {
                OFFSET  -3.911900  19.017000  -0.467063
                CHANNELS 3 Zrotation Xrotation Yrotation
                JOINT RightShoulder
                {
                    OFFSET -10.383700   0.000019   0.000000
                    CHANNELS 3 Zrotation Xrotation Yrotation
                    JOINT RightElbow
                    {
                        OFFSET -26.662100   0.001175   0.000102
                        CHANNELS 3 Zrotation Xrotation Yrotation
                        JOINT RightWrist
                        {
                            OFFSET -28.869000   0.000016  -0.000079
                            CHANNELS 3 Zrotation Xrotation Yrotation
                            JOINT RightFinger0
                            {
                                OFFSET  -2.044660  -2.323490   3.252850
                                CHANNELS 3 Zrotation Xrotation Yrotation
                                JOINT RightFinger01
                                {
                                    OFFSET  -3.088140   0.000000   0.000000
                                    CHANNELS 3 Zrotation Xrotation Yrotation
                                    JOINT RightFinger02
                                    {
                                        OFFSET  -2.639460   0.000000   0.000000
                                        CHANNELS 3 Zrotation Xrotation Yrotation
                                        End Site
                                        {
                                            OFFSET  -2.582190   0.000000   0.000000
                                        }
                                    }
                                }
                            }
                            JOINT RightFinger1
                            {
                                OFFSET  -8.364480   0.000000   3.252850
                                CHANNELS 3 Zrotation Xrotation Yrotation
                                JOINT RightFinger11
                                {
                                    OFFSET  -4.646930   0.000000   0.000000
                                    CHANNELS 3 Zrotation Xrotation Yrotation
                                    JOINT RightFinger12
                                    {
                                        OFFSET  -2.323470   0.000000   0.000000
                                        CHANNELS 3 Zrotation Xrotation Yrotation
                                        End Site
                                        {
                                            OFFSET  -2.273050   0.000000   0.000000
                                        }
                                    }
                                }
                            }
                            JOINT RightFinger2
                            {
                                OFFSET  -8.364480   0.000000   1.078090
                                CHANNELS 3 Zrotation Xrotation Yrotation
                                JOINT RightFinger21
                                {
                                    OFFSET  -5.111620   0.000000   0.000000
                                    CHANNELS 3 Zrotation Xrotation Yrotation
                                    JOINT RightFinger22
                                    {
                                        OFFSET  -2.788160   0.000000   0.000000
                                        CHANNELS 3 Zrotation Xrotation Yrotation
                                        End Site
                                        {
                                            OFFSET  -2.727660   0.000000   0.000000
                                        }
                                    }
                                }
                            }
                            JOINT RightFinger3
                            {
                                OFFSET  -7.899780   0.000000  -1.078090
                                CHANNELS 3 Zrotation Xrotation Yrotation
                                JOINT RightFinger31
                                {
                                    OFFSET  -4.646930   0.000000   0.000000
                                    CHANNELS 3 Zrotation Xrotation Yrotation
                                    JOINT RightFinger32
                                    {
                                        OFFSET  -2.323470   0.000000   0.000000
                                        CHANNELS 3 Zrotation Xrotation Yrotation
                                        End Site
                                        {
                                            OFFSET  -2.273050   0.000000   0.000000
                                        }
                                    }
                                }
                            }
                            JOINT RightFinger4
                            {
                                OFFSET  -7.435090   0.000000  -3.252850
                                CHANNELS 3 Zrotation Xrotation Yrotation
                                JOINT RightFinger41
                                {
                                    OFFSET  -3.717550   0.000000   0.000000
                                    CHANNELS 3 Zrotation Xrotation Yrotation
                                    JOINT RightFinger42
                                    {
                                        OFFSET  -1.858770   0.000000   0.000000
                                        CHANNELS 3 Zrotation Xrotation Yrotation
                                        End Site
                                        {
                                            OFFSET  -1.818440   0.000000   0.000000
                                        }
                                    }
                                }
                            }
                        }
                    }
                }
            }
        }
    }
    JOINT LeftHip
    {
        OFFSET   9.783040   0.000000   0.000000
        CHANNELS 3 Zrotation Xrotation Yrotation
        JOINT LeftKnee
        {
            OFFSET   0.000032 -41.789100  -0.002222
            CHANNELS 3 Zrotation Xrotation Yrotation
            JOINT LeftAnkle
            {
                OFFSET   0.000087 -41.133200  -0.000135
                CHANNELS 3 Zrotation Xrotation Yrotation
                JOINT LeftToe
                {
                    OFFSET   0.000000  -6.358960  14.674500
                    CHANNELS 3 Zrotation Xrotation Yrotation
                    End Site
                    {
                        OFFSET   0.000000   0.000000   3.913200
                    }
                }
            }
        }
    }
    JOINT RightHip
    {
        OFFSET  -9.783040   0.000000   0.000000
        CHANNELS 3 Zrotation Xrotation Yrotation
        JOINT RightKnee
        {
            OFFSET   0.000047 -41.789100  -0.000896
            CHANNELS 3 Zrotation Xrotation Yrotation
            JOINT RightAnkle
            {
                OFFSET  -0.000117 -41.133300  -0.000248
                CHANNELS 3 Zrotation Xrotation Yrotation
                JOINT RightToe
                {
                    OFFSET   0.000000  -6.358970  14.674500
                    CHANNELS 3 Zrotation Xrotation Yrotation
                    End Site
                    {
                        OFFSET   0.000000   0.000000   3.913200
                    }
                }
            }
        }
    }
}
MOTION
Frames: 6
Frame Time:   0.016667
 -5.456350  89.649500   1.001540  -0.413173 -10.830000  -6.264940   3.318310   6.274340  -2.077460   6.926330  12.412200  -4.559630   3.196650   1.830610  -0.101364   5.262840   3.677680  16.701800  -4.507700  -3.394460   4.463360 -37.541700   4.857570 -60.217200  12.155800 -10.212300 -106.928000  26.992400   6.763710 -30.450300  59.040400  54.333300 -108.293000  15.695000  -0.000968   0.000452  12.847500  -0.005604   0.004045 -49.884900   7.231900  -6.051530 -41.127300  -0.004792  -0.005321 -30.845300   0.000196  -0.007600 -43.342200   1.006140  -1.065580 -54.441800   0.000512  -0.004411 -38.238200   0.002052  -0.001531 -34.962000   0.034167  -0.048189 -52.441400   0.002061   0.001388 -34.926300   0.003565  -0.002444 -37.257600  -2.135700   2.803930 -55.964400   0.003818  -0.000997 -37.272300  -0.001330   0.006181   9.427620  -1.115700  13.940700  39.518300   5.027850  44.915100  -8.998980 -15.788900 106.808000 -29.197000  37.415300  51.562600 -59.040400  54.333300 108.293000 -16.743000  -0.000988  -0.004377 -13.371500  -0.000670  -0.005163  37.401000   1.170810   1.531020  30.613600   0.001509   0.000717  21.429500   0.004317   0.001019  28.698900   0.925695   1.690570  39.216900   0.000478   0.001108  26.118400   0.003068   0.001185  28.737100   0.714642   1.303100  40.080000  -0.000494   0.000572  26.693300  -0.002443   0.000575  33.567000  -1.065940  -1.606130  50.372800   0.007844   0.000546  33.548400  -0.000455   0.000584   1.477120  11.626900   5.420610   0.138474   5.386540  18.688100  -7.489830  -5.519450   4.666000  -0.000000   0.000000   0.000000   2.403590  12.027100  -8.699140   0.973790   1.688990  -6.524040 -10.862100  -1.120030   3.307260  -0.000000   0.000000   0.000000
 -5.414520  89.654600   1.010480  -0.430105 -10.804700  -6.276700   3.315240   6.274960  -2.077190   6.920210  12.413600  -4.558940   3.196720   1.828000  -0.100696   5.263570   3.672460  16.715300  -4.542330  -3.390950   4.492740 -37.688500   5.011440 -60.443700  12.286700 -10.169500 -106.704000  27.304100   6.654690 -30.612100  59.040400  54.333300 -108.293000  15.695000  -0.000909   0.000402  12.847500  -0.005614   0.004141 -50.032400   7.172090  -5.973670 -41.242300  -0.004882  -0.005278 -30.931700   0.000193  -0.007625 -43.560200   0.880080  -0.924095 -54.444800   0.000490  -0.004397 -38.295900   0.002037  -0.001530 -35.151200  -0.029599   0.042113 -52.726700   0.002014   0.001351 -35.116000   0.003554  -0.002395 -37.451800  -2.153280   2.806680 -56.256800   0.003790  -0.000987 -37.467100  -0.001313   0.006265   9.463050  -1.117070  13.982400  39.592600   5.276120  45.027100  -9.217630 -16.096800 106.832000 -28.938600  37.293100  51.340700 -59.040400  54.333300 108.293000 -16.773800  -0.000942  -0.004378 -13.386900  -0.000628  -0.005186  37.435500   1.163770   1.519670  30.641600   0.001473   0.000662  21.449100   0.004322   0.000946  28.700000   0.919346   1.678900  39.271300   0.000476   0.001033  26.154700   0.003057   0.001132  28.735800   0.746359   1.360750  40.109000  -0.000450   0.000575  26.712600  -0.002463   0.000568  33.545800  -1.073520  -1.618460  50.341300   0.007994   0.000504  33.527400  -0.000503   0.000577   1.463130  11.632900   5.424330   0.130060   5.329560  18.694000  -7.451230  -5.517990   4.674980   0.000000   0.000000   0.000000   2.391720  12.008200  -8.700110   0.966717   1.687870  -6.510850 -10.843500  -1.106600   3.309450   0.000000   0.000000   0.000000
 -5.370370  89.660600   1.019060  -0.449497 -10.782900  -6.288620   3.309860   6.277840  -2.076870   6.909470  12.419600  -4.558160   3.196790   1.816020  -0.100062   5.264980   3.648420  16.726200  -4.576280  -3.408820   4.514680 -37.812000   5.196410 -60.698300  12.410000 -10.121100 -106.448000  27.577000   6.499950 -30.724500  59.040400  54.333300 -108.293000  15.695000  -0.000863   0.000420  12.847500  -0.005608   0.004237 -50.146100   7.191200  -5.968080 -41.336500  -0.004972  -0.005236 -31.002400   0.000197  -0.007652 -43.675000   0.804963  -0.841492 -54.446200   0.000466  -0.004379 -38.326300   0.002025  -0.001532 -35.317100  -0.061079   0.086309 -52.996500   0.001962   0.001312 -35.291400   0.003540  -0.002349 -37.642800  -2.107710   2.734190 -56.540000   0.003764  -0.000975 -37.655600  -0.001299   0.006350   9.503410  -1.128490  14.020000  39.692400   5.495660  45.149200  -9.417890 -16.349500 106.833000 -28.707700  37.103300  51.139500 -59.040400  54.333300 108.293000 -16.801900  -0.000887  -0.004374 -13.401000  -0.000594  -0.005207  37.445500   1.168130   1.525770  30.650000   0.001433   0.000602  21.454900   0.004342   0.000880  28.701400   0.923043   1.685450  39.334800   0.000460   0.000962  26.197000   0.003037   0.001067  28.736200   0.741050   1.351040  40.110700  -0.000415   0.000575  26.713800  -0.002476   0.000559  33.520700  -1.072970  -1.617900  50.303700   0.008147   0.000464  33.502300  -0.000561   0.000562   1.449570  11.641900   5.430520   0.120778   5.271200  18.692700  -7.411330  -5.516360   4.688090   0.000000   0.000000  -0.000000   2.384260  11.994100  -8.699580   0.955680   1.692920  -6.499710 -10.821100  -1.097170   3.314540  -0.000000   0.000000   0.000000
 -5.323490  89.666700   1.027890  -0.470962 -10.760700  -6.302310   3.302810   6.281590  -2.075820   6.895390  12.427400  -4.555310   3.196770   1.795350  -0.099297   5.265270   3.606730  16.732700  -4.611300  -3.439000   4.525390 -37.887000   5.372490 -60.935600  12.507200 -10.101600 -106.210000  27.875800   6.317460 -30.821900  59.040400  54.333300 -108.293000  15.695000  -0.000821   0.000439  12.847500  -0.005600   0.004333 -50.259800   7.218630  -5.963840 -41.429700  -0.005062  -0.005195 -31.072300   0.000201  -0.007682 -43.793300   0.746763  -0.777755 -54.447000   0.000438  -0.004362 -38.357200   0.002016  -0.001533 -35.490100  -0.073509   0.103604 -53.260900   0.001912   0.001273 -35.466500   0.003524  -0.002304 -37.842300  -2.038450   2.621260 -56.833100   0.003737  -0.000963 -37.850800  -0.001283   0.006434   9.543780  -1.147780  14.040500  39.810900   5.697200  45.277600  -9.601710 -16.561200 106.804000 -28.494100  36.898000  50.945200 -59.040400  54.333300 108.293000 -16.833100  -0.000830  -0.004367 -13.416600  -0.000560  -0.005227  37.463500   1.176810   1.534970  30.664900   0.001394   0.000539  21.465400   0.004362   0.000816  28.705400   0.929325   1.696410  39.456600   0.000448   0.000892  26.278100   0.003017   0.000998  28.736800   0.733408   1.337070  40.112500  -0.000376   0.000575  26.714900  -0.002485   0.000552  33.507000  -1.069100  -1.614020  50.283100   0.008303   0.000427  33.488500  -0.000623   0.000547   1.436670  11.653400   5.437860   0.109637   5.208130  18.690800  -7.369430  -5.514270   4.707220  -0.000000   0.000000   0.000000   2.378500  11.981200  -8.698700   0.943459   1.697940  -6.493980 -10.797000  -1.088750   3.323730   0.000000   0.000000   0.000000
 -5.273490  89.672400   1.037460  -0.495498 -10.734500  -6.320740   3.294310   6.284830  -2.069620   6.877790  12.434700  -4.541900   3.196670   1.767950  -0.098331   5.266080   3.551570  16.732800  -4.647080  -3.460960   4.524560 -37.850000   5.479320 -61.083500  12.518200 -10.170400 -106.069000  28.274000   6.134970 -30.937000  59.040400  54.333300 -108.293000  15.695000  -0.000780   0.000397  12.847500  -0.005599   0.004434 -50.387800   7.233100  -5.948910 -41.534200  -0.005153  -0.005156 -31.150700   0.000195  -0.007716 -44.008000   0.691194  -0.713603 -54.448000   0.000406  -0.004349 -38.413100   0.002009  -0.001532 -35.672000  -0.072824   0.101788 -53.534900   0.001865   0.001237 -35.649400   0.003509  -0.002262 -38.051700  -1.991550   2.544420 -57.143600   0.003711  -0.000952 -38.057500  -0.001256   0.006517   9.574550  -1.164140  14.039100  39.956700   5.877530  45.405500  -9.769620 -16.710100 106.722000 -28.353800  36.663400  50.824300 -59.040400  54.333300 108.293000 -16.872600  -0.000777  -0.004360 -13.436300  -0.000524  -0.005248  37.591100   1.187460   1.541250  30.769500   0.001357   0.000481  21.538600   0.004372   0.000746  28.715000   0.935051   1.705990  39.695200   0.000450   0.000823  26.437000   0.003007   0.000933  28.741400   0.729386   1.329730  40.246500  -0.000318   0.000567  26.804200  -0.002490   0.000554  33.532700  -1.036270  -1.563940  50.320100   0.008462   0.000395  33.513100  -0.000683   0.000536   1.426160  11.668800   5.445310   0.095681   5.135410  18.680400  -7.324250  -5.511200   4.737200   0.000000   0.000000   0.000000   2.373290  11.968400  -8.694610   0.933132   1.697160  -6.499220 -10.772100  -1.079050   3.341090  -0.000000   0.000000   0.000000
 -5.220990  89.677900   1.047350  -0.520725 -10.704700  -6.341590   3.284050   6.286650  -2.057910   6.855890  12.439400  -4.517550   3.196340   1.735420  -0.096917   5.264370   3.486130  16.732600  -4.686470  -3.488910   4.518140 -37.777400   5.591920 -61.216600  12.530000 -10.269300 -105.936000  28.720300   5.903700 -31.047200  59.040400  54.333300 -108.293000  15.695000  -0.000735   0.000354  12.847500  -0.005598   0.004531 -50.540400   7.239390  -5.921800 -41.658000  -0.005243  -0.005118 -31.243500   0.000185  -0.007750 -44.290900   0.627165  -0.640198 -54.448900   0.000373  -0.004337 -38.485900   0.002003  -0.001532 -35.925400  -0.072140   0.099972 -53.784300   0.001821   0.001201 -35.842300   0.003493  -0.002221 -38.288300  -1.963760   2.483090 -57.496200   0.003682  -0.000940 -38.292400  -0.001226   0.006603   9.606990  -1.191550  14.033500  40.099100   6.063480  45.541800  -9.919080 -16.845900 106.611000 -28.283500  36.414000  50.796900 -59.040400  54.333300 108.293000 -16.919600  -0.000725  -0.004352 -13.459800  -0.000488  -0.005267  37.787300   1.198330   1.544440  30.930200   0.001320   0.000420  21.651100   0.004380   0.000675  28.727000   0.940039   1.714060  39.999600   0.000453   0.000756  26.639800   0.002996   0.000868  28.749100   0.727697   1.326650  40.483000  -0.000261   0.000554  26.961700  -0.002494   0.000556  33.588800  -0.983304  -1.480250  50.402100   0.008624   0.000362  33.567800  -0.000746   0.000525   1.415230  11.683300   5.452180   0.081215   5.059110  18.666100  -7.277570  -5.508100   4.771650   0.000000   0.000000  -0.000000   2.365860  11.951100  -8.690770   0.923867   1.696370  -6.504460 -10.747000  -1.069350   3.361640   0.000000   0.000000  -0.000000
